<svg width="273" height="331" fill="none" xmlns="http://www.w3.org/2000/svg"><path d="M34.634 66V1.6h57.684V66H74.47V17.24H52.482V66H34.634zm126.222-8.464c-6.624 6.501-14.874 9.752-24.748 9.752-9.875 0-18.124-3.22-24.748-9.66-6.563-6.501-9.844-14.444-9.844-23.828 0-9.323 3.312-17.235 9.936-23.736 6.685-6.501 14.965-9.752 24.84-9.752 9.874 0 18.093 3.25 24.656 9.752 6.624 6.44 9.936 14.352 9.936 23.736 0 9.323-3.343 17.235-10.028 23.736zm-24.564-6.348c4.845 0 8.77-1.687 11.776-5.06 3.066-3.373 4.6-7.483 4.6-12.328 0-4.784-1.564-8.863-4.692-12.236-3.128-3.435-7.084-5.152-11.868-5.152-4.784 0-8.71 1.687-11.776 5.06-3.006 3.373-4.508 7.483-4.508 12.328 0 4.784 1.533 8.893 4.6 12.328 3.128 3.373 7.084 5.06 11.868 5.06zM180.181 66V1.6h17.848v48.76h18.308V1.6h17.848v48.76h18.308V1.6h17.848V66h-90.16zm-144.68 88l27.416-64.86h17.204L107.537 154H88.401l-4.692-11.5H58.87l-4.6 11.5H35.501zm28.612-25.392h14.444L71.381 110.3l-7.268 18.308zM113.786 154V89.6h46.368v15.64h-28.52V154h-17.848zm111.038-8.464c-6.624 6.501-14.873 9.752-24.748 9.752-9.874 0-18.124-3.22-24.748-9.66-6.562-6.501-9.844-14.444-9.844-23.828 0-9.323 3.312-17.235 9.936-23.736 6.686-6.501 14.966-9.752 24.84-9.752 9.875 0 18.094 3.25 24.656 9.752 6.624 6.44 9.936 14.352 9.936 23.736 0 9.323-3.342 17.235-10.028 23.736zm-24.564-6.348c4.846 0 8.771-1.687 11.776-5.06 3.067-3.373 4.6-7.483 4.6-12.328 0-4.784-1.564-8.863-4.692-12.236-3.128-3.435-7.084-5.152-11.868-5.152-4.784 0-8.709 1.687-11.776 5.06-3.005 3.373-4.508 7.483-4.508 12.328 0 4.784 1.534 8.893 4.6 12.328 3.128 3.373 7.084 5.06 11.868 5.06zm41.865-6.256v-15.364h30.176v15.364h-30.176zM54.13 242v-64.4h33.028c7.85 0 13.708 1.932 17.572 5.796 2.76 2.76 4.14 6.287 4.14 10.58 0 6.685-3.312 11.469-9.936 14.352 4.17 1.349 7.329 3.281 9.476 5.796 2.208 2.515 3.312 5.888 3.312 10.12 0 5.52-2.147 9.875-6.44 13.064-4.294 3.128-10.273 4.692-17.94 4.692H54.13zm17.388-14.352h13.8c5.704 0 8.556-2.024 8.556-6.072 0-3.864-2.914-5.796-8.74-5.796H71.518v11.868zm0-24.38h11.224c5.642 0 8.464-1.932 8.464-5.796 0-3.68-2.699-5.52-8.096-5.52H71.518v11.316zM119.895 242v-64.4h17.848v20.24h9.752c8.035 0 14.506 1.901 19.412 5.704 4.907 3.741 7.36 9.139 7.36 16.192 0 6.931-2.33 12.389-6.992 16.376-4.661 3.925-10.948 5.888-18.86 5.888h-28.52zm17.848-14.996h9.292c3.006 0 5.306-.644 6.9-1.932 1.656-1.349 2.484-3.281 2.484-5.796 0-2.269-.828-4.079-2.484-5.428-1.656-1.349-3.925-2.024-6.808-2.024h-9.384v15.18zM181.811 242v-64.4h17.848V242h-17.848zm29.276 0v-64.4h17.664v36.248l24.932-36.248h16.652V242h-17.664v-36.248L227.739 242h-16.652zm30.176-68.54c-4.416 0-8.066-1.227-10.948-3.68-2.822-2.453-4.57-5.919-5.244-10.396l9.752-1.748c1.349 3.68 3.496 5.52 6.44 5.52 3.005 0 5.182-1.84 6.532-5.52l9.752 1.748c-.675 4.477-2.454 7.943-5.336 10.396-2.822 2.453-6.471 3.68-10.948 3.68zM.403 330v-64.4h57.684V330H40.24v-48.76H18.251V330H.403zm72.77.92c-4.17 0-7.728-.491-10.672-1.472l1.196-13.708c1.104.245 2.484.368 4.14.368 1.227 0 2.239-.184 3.036-.552.797-.368 1.656-1.319 2.576-2.852.981-1.595 1.748-3.803 2.3-6.624.552-2.883 1.012-6.961 1.38-12.236.368-5.336.552-11.776.552-19.32V265.6h49.496V330h-17.848v-48.76H94.333v2.484c0 7.667-.337 14.321-1.012 19.964-.675 5.643-1.625 10.212-2.852 13.708-1.165 3.435-2.668 6.195-4.508 8.28-1.84 2.024-3.772 3.404-5.796 4.14-1.963.736-4.293 1.104-6.992 1.104zm60.258-.92l27.416-64.86h17.204L205.467 330h-19.136l-4.692-11.5h-24.84l-4.6 11.5h-18.768zm28.612-25.392h14.444l-7.176-18.308-7.268 18.308zM211.716 330v-64.4h17.848v24.104h22.908V265.6h17.848V330h-17.848v-24.472h-22.908V330h-17.848z" fill="#000"/></svg>